<?xml version="1.0" encoding="UTF-8"?> <svg xmlns="http://www.w3.org/2000/svg" width="200" height="27" viewBox="0 0 200 27" fill="none"><g clip-path="url(#clip0_1744_3673)"><path d="M44.1359 9.19269H37.6212V20.5558H34.4644V6.40332H47.2928V20.5558H44.1359V9.19269Z" fill="#1C1E3E"></path><path d="M52.907 16.2689C52.907 17.3812 53.786 18.4935 55.6254 18.4935C57.3236 18.4935 57.8626 17.4829 57.8626 17.4829H61.0194C61.0194 17.4829 60.4205 20.7592 55.6232 20.7592C52.2867 20.7592 49.8892 18.8787 49.8892 15.5029C49.8892 12.1271 52.2867 10.2466 55.5848 10.2466C58.8828 10.2466 61.2611 12.1271 61.2611 15.5029C61.2611 15.8664 61.2012 16.2711 61.2012 16.2711H52.9091L52.907 16.2689ZM52.9476 14.4902H58.2026C58.2026 13.6808 57.4241 12.5079 55.5848 12.5079C53.7454 12.5079 52.9476 13.6808 52.9476 14.4902V14.4902Z" fill="#1C1E3E"></path><path d="M70.2119 20.757C67.6946 20.757 66.6551 19.3223 66.6551 19.3223H66.5354V24.5981H63.6587V10.4478H66.5354V12.1054H66.6744C66.6744 12.1054 67.6133 10.2444 70.2119 10.2444C72.8106 10.2444 75.0477 12.1444 75.0477 15.5007C75.0477 18.857 72.8491 20.757 70.2119 20.757V20.757ZM69.3136 12.8325C67.5748 12.8325 66.5354 13.9859 66.5354 15.5007C66.5354 17.0155 67.6347 18.1689 69.3136 18.1689C70.9926 18.1689 72.0919 17.0155 72.0919 15.5007C72.0919 13.9859 71.0525 12.8325 69.3136 12.8325V12.8325Z" fill="#1C1E3E"></path><path d="M82.7624 20.757C79.2655 20.6164 77.0476 18.7748 77.0476 15.5007C77.0476 12.2266 79.2655 10.385 82.7624 10.2444V6.40332H85.6391V10.2444C89.136 10.385 91.3539 12.2266 91.3539 15.5007C91.3539 18.7748 89.136 20.6164 85.6391 20.757V24.5981H82.7624V20.757V20.757ZM82.7624 12.4668C80.8247 12.5079 80.0056 13.882 80.0056 15.4985C80.0056 17.115 80.8247 18.4913 82.7624 18.5303V12.4646V12.4668ZM85.6391 18.5324C87.5768 18.4913 88.396 17.1172 88.396 15.5007C88.396 13.8842 87.5768 12.5079 85.6391 12.469V18.5346V18.5324Z" fill="#1C1E3E"></path><path d="M99.0471 10.2444C102.345 10.2444 104.743 12.1444 104.743 15.5007C104.743 18.857 102.345 20.757 99.0471 20.757C95.7491 20.757 93.3516 18.857 93.3516 15.5007C93.3516 12.1444 95.7491 10.2444 99.0471 10.2444V10.2444ZM99.0471 12.7503C97.2891 12.7503 96.3095 13.9426 96.3095 15.5007C96.3095 17.0588 97.2891 18.2511 99.0471 18.2511C100.805 18.2511 101.785 17.0588 101.785 15.5007C101.785 13.9426 100.805 12.7503 99.0471 12.7503V12.7503Z" fill="#1C1E3E"></path><path d="M113.715 14.8536L115.813 10.4456H119.81V20.5535H116.932V14.7519L117.152 13.5595H116.912L116.553 14.7519L114.855 18.0887H112.098L110.4 14.7519L110.04 13.5595H109.801L110.021 14.7519V20.5535H107.145V10.4477H111.142L113.24 14.8558L113.379 15.968H113.578L113.717 14.8558L113.715 14.8536Z" fill="#1C1E3E"></path><path d="M126.685 14.5918C128.943 14.5918 129.923 15.4401 129.923 15.4401V13.9643C129.923 13.2155 129.463 12.4278 127.805 12.4278C126.945 12.4278 125.666 12.7308 125.666 13.7024H122.709C122.728 11.3177 124.807 10.2444 127.803 10.2444C130.8 10.2444 132.799 11.4173 132.799 13.9643V17.1194C132.799 17.9676 132.998 18.21 133.458 18.21C133.738 18.21 133.877 18.1299 133.877 18.1299V20.5558C133.877 20.5558 133.518 20.757 132.639 20.757C130.68 20.757 130.222 19.3418 130.222 19.3418H130.083C130.083 19.4024 129.305 20.757 126.347 20.757C124.129 20.757 122.21 19.807 122.21 17.7036C122.21 15.6002 124.289 14.5897 126.687 14.5897L126.685 14.5918ZM129.923 17.7859V17.1799C129.923 17.1799 129.343 16.574 127.525 16.574C126.246 16.574 125.168 16.7753 125.168 17.5651C125.168 18.355 126.246 18.5562 127.525 18.5562C129.283 18.5562 129.923 17.788 129.923 17.788V17.7859Z" fill="#1C1E3E"></path><path d="M143.508 16.7558H138.751V20.5557H135.875V10.4478H138.751V14.2477H143.508V10.4478H146.385V20.5557H143.508V16.7558Z" fill="#1C1E3E"></path><path d="M154.48 10.2444C158.437 10.2444 160.056 12.9732 160.056 14.5918H157.098C157.098 14.5918 156.717 12.7524 154.48 12.7524C152.722 12.7524 151.743 13.9448 151.743 15.5029C151.743 17.0609 152.722 18.2533 154.48 18.2533C156.717 18.2533 157.098 16.4139 157.098 16.4139H160.056C160.056 18.0304 158.437 20.7613 154.48 20.7613C151.182 20.7613 148.785 18.8614 148.785 15.505C148.785 12.1487 151.182 10.2487 154.48 10.2487V10.2444Z" fill="#1C1E3E"></path><path d="M161.153 19.3828C161.153 19.3828 161.453 19.4629 161.774 19.4629C163.333 19.4629 163.591 17.5023 163.812 15.8642L165.069 6.40112H173.742V20.5557H172.423V7.61728H166.267L165.168 15.8664C164.749 19.0604 164.109 20.7591 161.891 20.7591C161.472 20.7591 161.151 20.638 161.151 20.638V19.385L161.153 19.3828Z" fill="#1C1E3E"></path><path d="M181.457 14.8947C183.794 14.8947 185.153 15.9248 185.153 15.9248V14.1049C185.153 12.4062 183.653 11.6185 181.976 11.6185C180.197 11.6185 178.7 12.4667 178.7 13.5401H177.461C177.502 12.1054 178.88 10.4478 181.938 10.4478C184.276 10.4478 186.393 11.5795 186.393 14.107V18.2922C186.393 19.2617 186.673 19.5862 187.351 19.5862C187.77 19.5862 187.95 19.4651 187.95 19.4651V20.5557C187.95 20.5557 187.691 20.6964 187.15 20.6964C185.553 20.6964 185.311 19.504 185.311 19.504H185.251C185.251 19.504 184.032 20.757 181.534 20.757C179.036 20.757 176.938 19.9282 176.938 17.8464C176.938 15.7647 179.055 14.8947 181.455 14.8947H181.457ZM181.696 19.5862C183.974 19.5862 185.114 18.4934 185.153 18.4545V17.0587C185.112 16.9981 183.993 16.0676 181.696 16.0676C179.917 16.0676 178.219 16.4918 178.219 17.8464C178.219 19.2011 179.917 19.5862 181.696 19.5862Z" fill="#1C1E3E"></path><path d="M190.829 13.6808H190.889C190.889 13.6808 191.808 11.335 195.205 11.335C198.043 11.335 200 13.2956 200 16.046C200 18.7964 198.022 20.757 194.944 20.757C191.866 20.757 189.648 18.2901 189.648 14.6914V13.8431C189.648 10.4456 191.426 7.83804 195.044 7.83804C196.822 7.83804 197.681 7.39226 197.681 6.40332H198.96C198.96 7.79909 198.101 9.05203 195.243 9.05203C191.787 9.05203 190.827 11.7007 190.827 13.683L190.829 13.6808ZM194.965 12.549C192.867 12.549 191.21 14.066 191.21 16.046C191.21 18.0261 192.869 19.543 194.965 19.543C197.324 19.543 198.723 17.9655 198.723 16.046C198.723 14.1266 197.324 12.549 194.965 12.549Z" fill="#1C1E3E"></path><path d="M13.3417 26.9978C20.7102 26.9978 26.6835 20.9542 26.6835 13.4989C26.6835 6.04367 20.7102 0 13.3417 0C5.9733 0 0 6.04367 0 13.4989C0 20.9542 5.9733 26.9978 13.3417 26.9978Z" fill="#1C1E3E"></path><path d="M13.3419 3.95361C8.13182 3.95361 3.90771 8.22748 3.90771 13.4989C3.90771 18.7704 8.13182 23.0443 13.3419 23.0443C18.552 23.0443 22.7761 18.7704 22.7761 13.4989V3.95361H13.3419Z" fill="#F5F5FA"></path><path d="M18.9455 7.83147V13.5011C18.9455 15.0159 18.3638 16.4376 17.3051 17.5088C16.2464 18.58 14.839 19.1686 13.344 19.1686C10.2556 19.1686 7.74256 16.6259 7.74256 13.5011C7.74256 11.9863 8.32431 10.5624 9.38301 9.49341C10.4417 8.42224 11.849 7.83363 13.344 7.83363H18.9455M22.7782 3.95578H13.3419C8.13182 3.95578 3.90771 8.22964 3.90771 13.5011C3.90771 18.7726 8.13182 23.0464 13.3419 23.0464C18.552 23.0464 22.7761 18.7726 22.7761 13.5011V3.95361L22.7782 3.95578Z" fill="#FF5959"></path></g><defs><clipPath id="clip0_1744_3673"><rect width="200" height="27" fill="white"></rect></clipPath></defs></svg> 