<?xml version="1.0" encoding="UTF-8"?> <svg xmlns="http://www.w3.org/2000/svg" width="242" height="69" viewBox="0 0 242 69" fill="none"> <path d="M193.256 55.9517C197.871 55.9517 200.627 53.7872 201.892 51.3176H202.12V55.3573H208.795V35.6703C208.795 27.8959 202.457 25.5598 196.844 25.5598C190.659 25.5598 185.911 28.3155 184.379 33.6774L190.853 34.5992C191.54 32.5873 193.494 30.8646 196.892 30.8646C200.112 30.8646 201.873 32.511 201.873 35.4033V35.5177C201.873 37.5074 199.784 37.6059 194.594 38.159C188.889 38.7724 183.431 40.476 183.431 47.103C183.412 52.8877 187.643 55.9517 193.256 55.9517ZM195.535 50.8662C192.642 50.8662 190.573 49.544 190.573 46.9981C190.573 44.3346 192.89 43.2254 195.977 42.7836C197.798 42.5356 201.437 42.0748 202.333 41.3501V44.8146C202.352 48.0788 199.708 50.8567 195.535 50.8567V50.8662Z" fill="#171321"></path> <path d="M150.233 25.9564H144.429V18.894H137.497V25.9564H133.324V31.3183H137.497V47.6744C137.459 53.208 141.483 55.9382 146.689 55.7761C148.076 55.7485 149.451 55.5161 150.77 55.0864L149.601 49.6641C148.938 49.836 148.257 49.9267 147.573 49.9342C145.828 49.9342 144.429 49.3208 144.429 46.5238V31.3025H150.233V25.9564Z" fill="#171321"></path> <path d="M213.899 55.357H220.717V50.7229H221.117C222.211 52.8683 224.49 55.8751 229.546 55.8751C236.479 55.8751 241.669 50.3765 241.669 40.6887C241.669 30.8834 236.326 25.5595 229.527 25.5595C224.337 25.5595 222.173 28.6807 221.117 30.8071H220.825V16.1356H213.899V55.357ZM220.698 40.6506C220.698 34.9295 223.148 31.2457 227.611 31.2457C232.226 31.2457 234.603 35.171 234.603 40.6506C234.603 46.1301 232.191 50.1858 227.611 50.1858C223.186 50.1858 220.698 46.3558 220.698 40.6506Z" fill="#171321"></path> <path d="M155.598 55.357H179.976V49.4007H162.705V16.1356H155.598V55.357Z" fill="#171321"></path> <path d="M110.191 28.6618H117.431C116.224 20.9637 109.559 15.6018 100.885 15.6018C90.6217 15.6018 82.9204 23.1473 82.9204 35.7846C82.9204 48.1963 90.2752 55.8943 101.094 55.8943C110.804 55.8943 117.756 49.6488 117.756 39.5383V34.8279H101.841V40.3806H110.881C110.766 45.9746 107.032 49.5153 101.133 49.5153C94.5661 49.5153 90.0655 44.5951 90.0655 35.7083C90.0655 26.8787 94.6423 21.9776 100.98 21.9776C105.71 21.9776 108.945 24.5045 110.191 28.6618Z" fill="#171321"></path> <path d="M122.543 55.3576H129.475V25.9574H122.543V55.3576ZM126.039 21.2851C128.242 21.2851 130.041 19.5974 130.041 17.5315C130.041 15.4655 128.242 13.7587 126.039 13.7587C123.837 13.7587 122.019 15.4432 122.019 17.5315C122.019 19.6197 123.805 21.2851 126.027 21.2851H126.039Z" fill="#171321"></path> <path d="M69.3853 27.4383L69.2902 27.1847L59.6866 2.14718C59.4922 1.65557 59.1464 1.23852 58.6991 0.956427C58.3653 0.742892 57.9862 0.610473 57.592 0.569783C57.1978 0.529092 56.7996 0.581263 56.4293 0.722113C56.0589 0.862963 55.7267 1.08857 55.4593 1.38086C55.1919 1.67315 54.9967 2.02399 54.8894 2.40526L48.407 22.2406H22.1557L15.6733 2.40526C15.5652 2.02456 15.3696 1.67438 15.102 1.38265C14.8345 1.09092 14.5024 0.865711 14.1324 0.724976C13.7623 0.584242 13.3645 0.531878 12.9706 0.572063C12.5767 0.612247 12.1976 0.743867 11.8636 0.956427C11.4163 1.23852 11.0705 1.65557 10.8761 2.14718L1.27706 27.1893L1.1774 27.4383C-0.204579 31.0482 -0.374834 35.0093 0.692301 38.7243C1.75944 42.4393 4.00611 45.7069 7.09356 48.0343L7.1298 48.0614L7.21134 48.1248L21.8205 59.068L29.0685 64.5419L33.4716 67.8697C33.9883 68.2597 34.618 68.4707 35.2655 68.4707C35.913 68.4707 36.5427 68.2597 37.0594 67.8697L41.4625 64.5419L48.7105 59.068L63.4239 48.0614L63.4646 48.0298C66.5519 45.7032 68.7988 42.4367 69.8668 38.7226C70.9347 35.0085 70.7657 31.0481 69.3853 27.4383V27.4383Z" fill="#E24329"></path> <path d="M69.3833 27.2722L69.2881 27.0162C64.6077 27.9852 60.1976 29.9866 56.3738 32.877L35.2805 48.969L48.7114 59.2093L63.4291 48.0958L63.4699 48.0638C66.5565 45.7134 68.8023 42.4146 69.8689 38.6645C70.9355 34.9144 70.765 30.9161 69.3833 27.2722V27.2722Z" fill="#FC6D26"></path> <path d="M22.05 59.1358L29.301 64.5704L33.706 67.8743C34.2228 68.2615 34.8529 68.471 35.5006 68.471C36.1483 68.471 36.7784 68.2615 37.2952 67.8743L41.7002 64.5704L48.9512 59.1358L35.5187 49.0669L22.05 59.1358Z" fill="#FCA326"></path> <path d="M14.1925 32.8732C10.3687 29.9838 5.95843 27.9837 1.27792 27.0162L1.17819 27.2676C-0.204717 30.9131 -0.375086 34.9133 0.692767 38.665C1.76062 42.4166 4.00881 45.7164 7.09833 48.0668L7.1346 48.0942L7.21619 48.1582L21.8352 59.2093L35.2802 48.9675L14.1925 32.8732Z" fill="#FC6D26"></path> </svg> 