<?xml version="1.0" encoding="UTF-8"?> <svg xmlns="http://www.w3.org/2000/svg" width="117" height="123" viewBox="0 0 117 123" fill="none"><path d="M116.457 75.2718V47.618L105.444 45.3621C104.631 42.7099 103.615 40.1268 102.409 37.6428L108.7 27.8285L90.1877 8.254L80.8748 14.8718C78.4941 13.5783 76.0157 12.4903 73.4692 11.6212L71.3315 0H45.1251L42.9873 11.6212C40.4742 12.4793 38.0263 13.5507 35.6721 14.8235L26.3715 8.18535L7.82193 27.7197L14.0931 37.5473C12.8671 40.0601 11.8363 42.6753 11.0127 45.3618L0 47.618V75.272L11.0127 77.5279C11.8258 80.1799 12.8414 82.763 14.0474 85.2472L7.75688 95.0618L26.2689 114.636L35.5818 108.018C37.9631 109.312 40.4409 110.4 42.9873 111.269L45.1251 122.89H71.3315L73.4694 111.269C75.9825 110.41 78.4304 109.339 80.7845 108.066L90.0854 114.704L108.635 95.1695L102.364 85.3422C103.589 82.8297 104.62 80.2147 105.444 77.5277L116.457 75.2718ZM100.043 71.2994L99.4802 73.45C98.539 77.0464 97.1717 80.515 95.4162 83.7588L94.3654 85.7006L99.832 94.2668L89.2474 105.413L81.1398 99.6272L79.2977 100.732C76.2434 102.564 72.9822 103.991 69.6047 104.976L67.5665 105.57L65.7052 115.689H50.7515L48.8897 105.57L46.8518 104.975C43.4438 103.982 40.1569 102.54 37.0824 100.687L35.2425 99.5782L27.1244 105.347L16.5614 94.1778L22.0449 85.6223L20.9979 83.6784C19.2622 80.4554 17.9091 77.014 16.9765 73.4498L16.4136 71.2992L6.82363 69.3347V53.5551L16.4136 51.5903L16.9765 49.4395C17.9175 45.8438 19.2847 42.3753 21.0404 39.1307L22.0911 37.1892L16.6244 28.6227L27.209 17.4762L35.3164 23.2624L37.1586 22.1576C40.2124 20.326 43.4738 18.8983 46.8515 17.914L48.8897 17.32L50.7515 7.20056H65.7052L67.5669 17.3202L69.6049 17.9143C73.0136 18.9077 76.3005 20.3505 79.3743 22.2027L81.2142 23.3116L89.3323 17.543L99.8955 28.712L94.412 37.2674L95.459 39.2114C97.1945 42.4341 98.5476 45.8755 99.4804 49.44L100.043 51.5906L109.633 53.5551V69.3347L100.043 71.2994Z" fill="#DEB2AC"></path><path d="M58.7021 23.2781C38.7587 23.2781 22.5337 40.3993 22.5337 61.4444C22.5337 82.4895 38.7587 99.611 58.7021 99.611C78.6456 99.611 94.8706 82.4895 94.8706 61.4444C94.8706 40.3993 78.6453 23.2781 58.7021 23.2781ZM58.7021 92.4104C42.5213 92.4104 29.3573 78.5191 29.3573 61.4444C29.3573 44.3697 42.5213 30.4786 58.7021 30.4786C74.883 30.4786 88.0469 44.3697 88.0469 61.4444C88.0469 78.5191 74.8828 92.4104 58.7021 92.4104Z" fill="#DEB2AC"></path><path d="M44.01 48.6619L33.2043 61.4448L44.01 74.2277L49.102 69.4348L42.3485 61.4448L49.102 53.4553L44.01 48.6619Z" fill="#DEB2AC"></path><path d="M68.3018 53.4553L75.0553 61.4448L68.3018 69.4348L73.3938 74.2277L84.1995 61.4448L73.3938 48.6619L68.3018 53.4553Z" fill="#DEB2AC"></path><path d="M60.4482 39.1805L49.7966 81.8754L56.3958 83.7087L67.0473 41.0138L60.4482 39.1805Z" fill="#DEB2AC"></path></svg> 