<?xml version="1.0" encoding="UTF-8"?> <svg xmlns="http://www.w3.org/2000/svg" width="117" height="123" viewBox="0 0 117 123" fill="none"><path d="M116.457 122.89C115.194 112.581 107.485 101.005 100.811 94.6721C93.6988 87.9227 84.8656 83.7922 76.2433 79.6759V70.8043C80.3964 66.6594 83.2702 61.102 84.1662 54.8683H87.8751C93.5189 54.8683 98.1105 50.0238 98.1105 44.0692C98.1105 38.1146 93.5189 33.2702 87.8751 33.2702H84.4632V18.2461C84.4632 8.1852 76.705 0 67.1692 0H18.6537V3.59968C18.6537 13.9504 24.0314 23.0005 31.9935 27.8047V33.2704H28.5816C22.9378 33.2704 18.3462 38.1149 18.3462 44.0695V62.7713C18.3462 67.8831 20.2329 72.6889 23.6589 76.3032L26.2821 79.0709L31.1071 73.9802L28.4838 71.2123C26.3467 68.9574 25.1698 65.9599 25.1698 62.771V54.2491C26.2377 54.6487 27.3855 54.8683 28.5816 54.8683H32.2905C33.1862 61.102 36.0603 66.6592 40.2134 70.8043V79.6759C29.8349 84.6305 19.5153 89.8742 11.7892 98.9793C5.85444 105.973 2.77471 114.136 0 122.89H116.457ZM87.8751 40.4698C89.7563 40.4698 91.2869 42.0846 91.2869 44.0695C91.2869 46.0543 89.7563 47.6692 87.8751 47.6692H84.4632V40.4698H87.8751ZM67.1692 7.19937C72.9425 7.19937 77.6394 12.1549 77.6394 18.2461V24.2633H67.5732C57.9373 24.2633 49.9041 16.8835 48.2853 7.19937H67.1692ZM25.7749 7.19937H41.3844C42.2114 13.9337 45.3259 19.9211 49.8766 24.2633H45.0627C35.4269 24.2633 27.3937 16.8835 25.7749 7.19937V7.19937ZM25.1701 44.0695C25.1701 42.0846 26.7006 40.4698 28.5819 40.4698H31.9937V47.6692H28.5819C26.7004 47.6692 25.1701 46.0543 25.1701 44.0695V44.0695ZM38.8173 50.702V31.4629H77.6396V50.702C77.6396 61.9947 68.9318 71.1818 58.2285 71.1818C47.5252 71.1818 38.8173 61.9945 38.8173 50.702V50.702ZM58.2285 78.3812C62.2294 78.3812 66.0233 77.4299 69.4197 75.7328V82.055C69.4197 88.5656 64.3993 93.8624 58.2285 93.8624C52.0576 93.8624 47.0373 88.5656 47.0373 82.055V75.7328C50.4336 77.4299 54.2273 78.3812 58.2285 78.3812ZM9.6436 115.69C15.1639 102.272 26.8705 94.2627 40.9092 87.2721C43.0643 95.2229 50.0099 101.062 58.2285 101.062C66.4471 101.062 73.3926 95.2229 75.5477 87.2721C89.5864 94.2627 101.52 102.272 107.041 115.69H9.6436Z" fill="#E0CE8C"></path><path d="M76.7177 101.66H89.6245V108.859H76.7177V101.66Z" fill="#E0CE8C"></path><path d="M58.2286 64.3658C62.4549 64.3658 66.3976 62.3697 69.0456 58.8892L63.7243 54.3827C62.3782 56.152 60.375 57.1667 58.2286 57.1667C56.0816 57.1667 54.0782 56.1516 52.7321 54.3817L47.4102 58.8873C50.0582 62.3689 54.0013 64.3658 58.2286 64.3658V64.3658Z" fill="#E0CE8C"></path></svg> 