<?xml version="1.0" encoding="UTF-8"?> <svg xmlns="http://www.w3.org/2000/svg" width="264" height="75" viewBox="0 0 264 75" fill="none"> <path fill-rule="evenodd" clip-rule="evenodd" d="M53.1099 35.9273C53.1099 50.6987 41.4027 62.6734 26.9612 62.6734C12.5199 62.6734 0.812744 50.6987 0.812744 35.9273C0.812744 21.1555 12.5199 9.1806 26.9612 9.1806C41.4027 9.1806 53.1099 21.1555 53.1099 35.9273Z" fill="#D33833"></path> <path d="M1.87766 42.5511C1.87766 42.5511 -0.0153141 14.6593 25.6852 13.8623L23.8923 10.8739L9.9464 15.5558L5.96176 20.138L2.47535 26.8123L0.48291 34.5822L1.08059 39.762" fill="#EF3D3A"></path> <path d="M9.05117 17.6812C4.46335 22.3754 1.62436 28.8567 1.62436 36.0268C1.62436 43.1954 4.46335 49.6775 9.05117 54.3709C13.6412 59.0642 19.9669 61.9603 26.9603 61.9603C33.9539 61.9603 40.2801 59.0642 44.8697 54.3709C49.4572 49.6775 52.2968 43.1954 52.2968 36.0268C52.2968 28.8567 49.4572 22.3754 44.8697 17.6812C40.2801 12.9887 33.9539 10.0927 26.9603 10.0921C19.9669 10.0927 13.6412 12.9887 9.05117 17.6812ZM7.88987 55.5062C3.01409 50.5198 -0.000244141 43.6284 -0.000244141 36.0268C-0.000244141 28.4239 3.01409 21.5332 7.88987 16.5465C12.7645 11.5588 19.5123 8.46726 26.9603 8.46816C34.4084 8.46726 41.1569 11.5588 46.0307 16.5465C50.9069 21.5332 53.9216 28.4245 53.921 36.0268C53.9216 43.6284 50.9069 50.5198 46.0307 55.5062C41.1569 60.4936 34.4084 63.5847 26.9603 63.5847C19.5123 63.5847 12.7645 60.4936 7.88987 55.5062" fill="#231F20"></path> <path fill-rule="evenodd" clip-rule="evenodd" d="M37.968 36.0756L33.9833 36.6733L28.6041 37.271L25.1174 37.3705L21.7307 37.271L19.1406 36.474L16.8494 33.9837L15.0564 28.9034L14.6579 27.8076L12.2672 27.0109L10.8726 24.7196L9.87646 21.4324L10.9724 18.5435L13.5621 17.6469L15.654 18.6433L16.6504 20.8347L17.8457 20.6354L18.244 20.1375L17.8457 17.8463L17.7459 14.9574L18.3436 10.9729L18.3203 8.69693L20.1367 5.79308L23.3244 3.50186L28.9029 1.11112L35.0788 2.00765L40.458 5.89259L42.9485 9.87705L44.5423 12.766L44.9406 19.9382L43.7452 26.1143L41.5538 31.593L39.4619 34.4819" fill="#F0D6B7"></path> <path fill-rule="evenodd" clip-rule="evenodd" d="M34.581 53.3087L20.3359 53.9064V56.2971L21.5313 64.6647L20.9336 65.3622L10.9724 61.9751L10.2749 60.7797L9.27878 49.5236L6.98798 42.7497L6.48975 41.156L14.4587 35.6773L16.9492 34.681L19.1406 37.3706L21.0332 39.0641L23.2249 39.7613L24.2209 40.0601L25.4162 45.24L26.3128 46.3358L28.6041 45.5388L27.01 48.627L35.6765 52.711L34.581 53.3087" fill="#335061"></path> <path fill-rule="evenodd" clip-rule="evenodd" d="M10.9724 18.5434L13.5621 17.6469L15.654 18.6432L16.6504 20.8346L17.8457 20.6353L18.1446 19.4399L17.5469 17.149L18.1446 11.67L17.6464 8.68159L19.4394 6.5897L23.3244 3.50176L22.2286 2.00755L16.7498 4.69713L14.4587 6.49018L13.1637 9.27928L11.1714 11.9689L10.5737 15.1566L10.9724 18.5434Z" fill="#6D6B6D"></path> <path fill-rule="evenodd" clip-rule="evenodd" d="M15.0558 9.17952C15.0558 9.17952 16.55 5.4939 22.5269 3.70085C28.5037 1.9078 22.8257 2.40567 22.8257 2.40567L16.351 4.89622L13.8604 7.38646L12.7649 9.37885L15.0558 9.17952Z" fill="#DCD9D8"></path> <path fill-rule="evenodd" clip-rule="evenodd" d="M12.0679 17.8459C12.0679 17.8459 9.97605 10.8727 17.9452 9.87664L17.6464 8.68128L12.1678 9.97646L10.5737 15.1563L10.9724 18.5431L12.0679 17.8459Z" fill="#DCD9D8"></path> <path fill-rule="evenodd" clip-rule="evenodd" d="M15.2554 27.1103L16.5597 25.8465C16.5597 25.8465 17.1484 25.9149 17.2478 26.6121C17.3473 27.3096 17.6461 33.5853 21.9295 36.9724C22.3202 37.2814 18.742 36.4739 18.742 36.4739L15.5542 31.4934" fill="#F7E4CD"></path> <path fill-rule="evenodd" clip-rule="evenodd" d="M33.586 25.217C33.586 25.217 33.8182 22.1975 34.6313 22.4297C35.4445 22.6619 35.4445 23.475 35.4445 23.475C35.4445 23.475 33.4697 24.7526 33.586 25.217" fill="#F7E4CD"></path> <path d="M41.8539 14.1596C41.8539 14.1596 40.2121 14.5063 40.0609 15.9527C39.9096 17.3994 41.8539 16.2515 42.1528 16.152" fill="#F7E4CD"></path> <path d="M29.8008 14.2595C29.8008 14.2595 27.6091 14.5583 27.6091 15.9527C27.6091 17.3474 30.0997 17.2479 30.7969 16.6502" fill="#F7E4CD"></path> <path fill-rule="evenodd" clip-rule="evenodd" d="M16.2513 20.735C16.2513 20.735 12.4658 18.4438 12.0675 20.6355C11.6691 22.8269 10.7724 24.4209 12.6652 26.7119L11.3703 26.3135L10.1749 23.2256L9.77661 20.2371L12.0675 17.8461L14.6575 18.0454L16.1517 19.2408L16.2513 20.735Z" fill="#F7E4CD"></path> <path fill-rule="evenodd" clip-rule="evenodd" d="M18.0458 14.4585C18.0458 14.4585 19.7393 5.69259 28.3063 3.99906C35.3593 2.60496 39.0643 4.2979 40.459 5.89162C40.459 5.89162 34.1833 -1.57913 28.2064 0.711795C22.2296 3.00302 17.8468 7.1868 17.9462 9.87608C18.1159 14.4567 18.0458 14.4585 18.0458 14.4585Z" fill="#F7E4CD"></path> <path fill-rule="evenodd" clip-rule="evenodd" d="M41.1564 6.88759C41.1564 6.88759 38.2678 6.78807 38.168 9.37814C38.168 9.37814 38.1677 9.77649 38.367 10.1749C38.367 10.1749 40.6585 7.58479 42.0529 8.97948" fill="#F7E4CD"></path> <path fill-rule="evenodd" clip-rule="evenodd" d="M28.5071 10.4448C28.5071 10.4448 28.0098 6.46932 24.6204 8.78057C22.4289 10.2748 22.6283 12.3667 23.0266 12.765C23.425 13.1637 23.3167 13.9661 23.62 13.4153C23.9231 12.8645 23.8233 11.0715 24.9192 10.5736C26.015 10.0754 27.8113 9.51901 28.5071 10.4448Z" fill="#F7E4CD"></path> <path fill-rule="evenodd" clip-rule="evenodd" d="M19.1406 37.3703L9.77701 41.5541C9.77701 41.5541 13.662 56.9943 11.6695 61.7758L10.2749 61.2779L10.1753 55.4005L7.58566 44.2439L6.48975 41.1557L16.2517 34.5815L19.1406 37.3703Z" fill="#49728B"></path> <path fill-rule="evenodd" clip-rule="evenodd" d="M20.1045 45.909L21.4329 47.5299V53.5067H19.8389C19.8389 53.5067 19.6399 49.323 19.6399 48.8247C19.6399 48.3266 19.8389 46.5336 19.8389 46.5336" fill="#49728B"></path> <path fill-rule="evenodd" clip-rule="evenodd" d="M20.1364 54.4047L15.6538 54.6037L16.949 55.5002L20.1364 55.9984" fill="#49728B"></path> <path fill-rule="evenodd" clip-rule="evenodd" d="M35.4785 53.4074L39.1641 53.3079L40.0607 62.4725L36.2752 62.9704L35.4785 53.4074" fill="#335061"></path> <path fill-rule="evenodd" clip-rule="evenodd" d="M36.4746 53.4076L42.0531 53.1088C42.0531 53.1088 44.344 47.3312 44.344 47.0323C44.344 46.7335 46.3364 38.6648 46.3364 38.6648L41.8538 33.9832L40.9572 33.1861L38.5665 35.5769V44.841L36.4746 53.4076" fill="#335061"></path> <path fill-rule="evenodd" clip-rule="evenodd" d="M38.9648 52.71L35.4785 53.4073L35.9764 56.1967C37.2713 56.7944 39.463 55.2003 39.463 55.2003" fill="#49728B"></path> <path fill-rule="evenodd" clip-rule="evenodd" d="M39.0649 35.2776L46.0378 40.4574L46.2371 38.0667L40.9575 33.1857L39.0649 35.2776Z" fill="#49728B"></path> <path fill-rule="evenodd" clip-rule="evenodd" d="M23.5951 73.0321L21.5328 64.6634L20.507 58.4885L20.3374 53.9051L29.6717 53.4081L35.4789 53.4072L34.9509 63.8676L35.8474 71.9363L35.7479 73.4305L28.1775 74.0282L23.5951 73.0321" fill="#F5F5FA"></path> <path fill-rule="evenodd" clip-rule="evenodd" d="M34.1834 53.3074C34.1834 53.3074 33.6856 63.6674 35.1798 71.0387C35.1798 71.0387 32.1913 72.9315 27.8081 73.4294L36.1758 73.1306L37.1718 72.5329L35.9765 56.1964L35.6776 52.7095" fill="#DCD9D8"></path> <path fill-rule="evenodd" clip-rule="evenodd" d="M40.2303 61.6762L44.1153 60.5804L51.4865 60.182L52.5824 56.7953L50.59 50.9179L48.2991 50.6191L45.1113 51.6152L42.053 53.1084L40.4294 52.8105L39.1641 53.3077" fill="#F5F5FA"></path> <path fill-rule="evenodd" clip-rule="evenodd" d="M40.1602 59.6828C40.1602 59.6828 42.7499 58.4877 43.1486 58.5872L42.053 53.1083L43.3479 52.6104C43.3479 52.6104 44.2444 57.7902 44.2444 58.3879C44.2444 58.3879 49.8226 58.6867 50.3208 58.6867C50.3208 58.6867 51.5162 56.3955 51.2173 54.0048L52.3132 57.1925L52.4127 58.9855L50.819 61.3763L49.0259 61.7747L46.0375 61.6751L45.0414 60.3803L41.5549 60.8782L40.459 61.2768" fill="#DCD9D8"></path> <path d="M36.2456 52.6111L34.0542 47.0326L31.7629 43.7454C31.7629 43.7454 32.2608 42.3507 32.9583 42.3507C33.6558 42.3507 35.2495 42.3507 35.2495 42.3507L37.4409 43.1477L37.2419 46.8334L36.2456 52.6111Z" fill="#F5F5FA"></path> <path fill-rule="evenodd" clip-rule="evenodd" d="M36.6738 50.7179C36.6738 50.7179 33.8844 45.3389 33.8844 44.542C33.8844 44.542 34.3823 43.3466 35.0798 43.6455C35.7773 43.9443 37.2715 44.741 37.2715 44.741V42.8485L33.8844 42.151L31.5935 42.4498L35.4785 51.6144L36.2752 51.7142" fill="#DCD9D8"></path> <path d="M24.4914 37.5697L21.7317 37.2697L19.1416 36.4727V37.3692L20.4071 38.7648L24.3917 40.5579" fill="#F5F5FA"></path> <path fill-rule="evenodd" clip-rule="evenodd" d="M20.0386 37.8683C20.0386 37.8683 23.1268 39.1635 24.1229 38.8647L24.222 40.0588L21.4333 39.4623L19.7397 38.267L20.0386 37.8683Z" fill="#DCD9D8"></path> <path fill-rule="evenodd" clip-rule="evenodd" d="M40.2192 42.6898C38.5289 42.6402 37.0018 42.4394 35.6648 42.0623C35.7556 41.5142 35.5856 40.9763 35.7222 40.5815C36.0948 40.3132 36.7194 40.3173 37.2827 40.2543C36.7956 40.0149 36.1113 39.9202 35.5491 40.0585C35.536 39.6781 35.3654 39.4423 35.262 39.1447C36.2123 38.8055 38.4557 36.5818 39.7177 37.3182C40.319 37.6684 40.5745 39.6689 40.6211 40.6416C40.6599 41.4485 40.5479 42.2625 40.2192 42.6898Z" fill="#D33833"></path> <path d="M40.2192 42.6898C38.5289 42.6402 37.0018 42.4394 35.6648 42.0623C35.7556 41.5142 35.5856 40.9763 35.7222 40.5815C36.0948 40.3132 36.7194 40.3173 37.2827 40.2543C36.7956 40.0149 36.1113 39.9202 35.5491 40.0585C35.536 39.6781 35.3654 39.4423 35.262 39.1447C36.2123 38.8055 38.4557 36.5818 39.7177 37.3182C40.319 37.6684 40.5745 39.6689 40.6211 40.6416C40.6599 41.4485 40.5479 42.2625 40.2192 42.6898Z" stroke="#D33833" stroke-width="1.48974"></path> <path fill-rule="evenodd" clip-rule="evenodd" d="M32.1369 39.9269C32.1325 40.0548 32.1271 40.1836 32.122 40.3127C31.5943 40.6594 30.7423 40.6552 30.1631 40.9466C31.0169 40.9839 31.689 41.1895 32.2705 41.4794C32.2577 41.8015 32.2454 42.1234 32.2329 42.4455C31.2655 43.1078 30.3818 44.094 29.2429 44.715C28.7044 45.0087 26.8145 45.7644 26.2415 45.6309C25.9174 45.5556 25.8882 45.1533 25.7586 44.7742C25.4825 43.9622 24.8469 42.6697 24.7914 41.4474C24.7208 39.9036 24.565 37.3162 26.2287 37.6342C27.5709 37.8903 29.132 38.5086 30.1712 39.0764C30.8062 39.4237 31.1735 39.8528 32.1369 39.9269" fill="#D33833"></path> <path d="M32.1369 39.9269C32.1325 40.0548 32.1271 40.1836 32.122 40.3127C31.5943 40.6594 30.7423 40.6552 30.1631 40.9466C31.0169 40.9839 31.689 41.1895 32.2705 41.4794C32.2577 41.8015 32.2454 42.1234 32.2329 42.4455C31.2655 43.1078 30.3818 44.094 29.2429 44.715C28.7044 45.0087 26.8145 45.7644 26.2415 45.6309C25.9174 45.5556 25.8882 45.1533 25.7586 44.7742C25.4825 43.9622 24.8469 42.6697 24.7914 41.4474C24.7208 39.9036 24.565 37.3162 26.2287 37.6342C27.5709 37.8903 29.132 38.5086 30.1712 39.0764C30.8062 39.4237 31.1735 39.8528 32.1369 39.9269V39.9269Z" stroke="#D33833" stroke-width="1.48974"></path> <path fill-rule="evenodd" clip-rule="evenodd" d="M33.0974 41.769C32.9498 40.928 32.7791 40.6881 32.8452 39.9544C35.088 38.459 35.5091 42.5229 33.0974 41.769Z" fill="#D33833"></path> <path d="M33.0974 41.769C32.9498 40.928 32.7791 40.6881 32.8452 39.9544C35.088 38.459 35.5091 42.5229 33.0974 41.769Z" stroke="#D33833" stroke-width="1.48974"></path> <path fill-rule="evenodd" clip-rule="evenodd" d="M36.3454 42.4509C36.3454 42.4509 35.6479 41.4545 36.1461 41.1557C36.6442 40.8568 37.1424 41.156 37.4412 40.6578C37.7401 40.1596 37.4412 39.8608 37.5407 39.2631C37.6403 38.6654 38.1387 38.5656 38.6366 38.4661C39.1345 38.3666 40.5295 38.1673 40.7285 38.6654L40.1308 36.8724L38.9354 36.474L35.15 38.6654L34.9507 39.7613V41.9527" fill="#EF3D3A"></path> <path fill-rule="evenodd" clip-rule="evenodd" d="M25.8861 45.7378C25.7664 44.1832 25.6398 42.6307 25.4989 41.0777C25.288 38.7586 26.0559 39.1633 28.0661 39.1633C28.3731 39.1633 29.9565 39.5294 30.0698 39.761C30.6131 40.8706 29.1613 40.624 30.6956 41.4608C31.9908 42.1669 34.2787 41.0319 33.7554 39.4621C33.4626 39.1131 32.2295 39.3533 31.7875 39.1241C31.0094 38.7207 30.2312 38.3172 29.4529 37.9138C28.4628 37.4001 26.1744 36.6512 25.1188 37.369C22.444 39.1881 25.2876 43.7332 26.2418 45.6308" fill="#EF3D3A"></path> <path fill-rule="evenodd" clip-rule="evenodd" d="M28.5071 10.4447C25.792 9.81235 24.4429 11.5809 23.62 13.4152C22.8851 13.2371 23.1775 12.2378 23.3631 11.7285C23.8491 10.3921 25.8076 8.6131 27.4078 8.85426C28.0964 8.95796 29.0283 9.58762 28.5071 10.4447" fill="#231F20"></path> <path fill-rule="evenodd" clip-rule="evenodd" d="M41.7355 13.5362C41.7782 13.5379 41.8216 13.5394 41.8643 13.5412C42.4778 14.8158 43.0089 16.166 43.7829 17.2911C43.2644 18.4987 39.8567 19.5674 39.9093 17.399C40.6462 17.0768 41.9184 17.3332 42.5717 16.9217C42.1939 15.8851 41.6489 15.0026 41.7355 13.5362" fill="#231F20"></path> <path fill-rule="evenodd" clip-rule="evenodd" d="M29.897 13.5699C30.4791 14.637 30.6686 15.7583 31.4961 16.5649C31.8687 16.928 32.5934 17.3705 32.2342 18.3803C32.1502 18.6185 31.5367 19.1496 31.1826 19.2539C29.8889 19.6358 26.8744 19.3327 27.8953 17.7199C28.9651 17.7698 30.4032 18.4147 31.2029 17.638C30.5888 16.6563 29.494 14.7141 29.897 13.5699" fill="#231F20"></path> <path fill-rule="evenodd" clip-rule="evenodd" d="M41.2501 24.4155C39.3022 25.6668 37.1302 27.0274 33.9386 26.7119C33.2566 26.1189 32.9967 24.7996 33.6592 23.9281C34.0041 24.521 33.7874 25.6115 34.7485 25.7756C36.5594 26.0855 38.6672 24.6678 39.9698 24.1723C40.7776 22.8105 39.9002 22.3096 39.1725 21.4331C37.6828 19.6374 35.6844 17.4116 35.7571 14.7232C36.3592 14.2866 36.4112 15.3896 36.4976 15.5904C37.2755 17.411 39.2332 19.7393 40.6619 21.2974C41.0128 21.6811 41.5905 22.0493 41.6547 22.303C41.84 23.0409 41.1727 23.9248 41.2501 24.4155" fill="#231F20"></path> <path fill-rule="evenodd" clip-rule="evenodd" d="M15.5698 23.0995C14.9593 22.7511 14.814 21.2162 14.0972 21.1726C13.0728 21.1104 13.2596 23.1638 13.2637 24.3645C12.5586 23.7244 12.4346 21.7535 12.9526 20.7413C12.3623 20.4515 12.0987 21.0611 11.7712 21.276C12.1921 18.2188 16.2434 19.858 15.5698 23.0995Z" fill="#231F20"></path> <path fill-rule="evenodd" clip-rule="evenodd" d="M42.4903 25.6889C41.5836 27.4147 40.301 29.3154 37.6404 29.3707C37.5863 28.8133 37.5448 27.9652 37.6434 27.6296C39.6773 27.4342 40.933 26.399 42.4903 25.6889Z" fill="#231F20"></path> <path fill-rule="evenodd" clip-rule="evenodd" d="M29.7439 26.8072C31.4408 27.6996 34.5596 27.7955 36.866 27.7279C36.9897 28.2333 36.9867 28.8576 36.9915 29.4738C34.0267 29.6217 30.5213 28.888 29.7439 26.8072Z" fill="#231F20"></path> <path fill-rule="evenodd" clip-rule="evenodd" d="M29.421 28.4714C30.5945 31.4177 34.6276 31.0785 38.0288 30.9972C37.879 31.3797 37.5545 31.8316 37.1511 31.995C36.0612 32.4385 33.0551 32.775 31.5421 31.9714C30.5825 31.4613 29.966 30.3087 29.4402 29.633C29.1863 29.3067 27.9221 28.4732 29.421 28.4714" fill="#231F20"></path> <path fill-rule="evenodd" clip-rule="evenodd" d="M41.1085 44.723C39.7314 47.0815 38.4138 49.5039 36.78 51.5842C37.465 49.5703 37.7581 46.1995 37.8615 43.6299C39.2945 42.9593 40.5215 43.7808 41.1085 44.723Z" fill="#81B0C4"></path> <path fill-rule="evenodd" clip-rule="evenodd" d="M48.5185 53.1999C46.9768 53.5085 45.8935 55.0069 44.3894 54.9107C45.216 53.7455 46.6645 53.2543 48.5185 53.1999Z" fill="#231F20"></path> <path fill-rule="evenodd" clip-rule="evenodd" d="M49.1983 55.6128C47.9417 55.7455 46.4657 55.949 45.1912 55.8442C45.7945 54.9225 48.1192 55.2405 49.1983 55.6128Z" fill="#231F20"></path> <path fill-rule="evenodd" clip-rule="evenodd" d="M49.6341 57.6929C48.2218 57.7235 46.4664 57.6953 45.124 57.5827C45.918 56.7298 48.7182 57.2662 49.6341 57.6929Z" fill="#231F20"></path> <path fill-rule="evenodd" clip-rule="evenodd" d="M38.4513 63.3857C38.6539 65.1594 39.3571 66.9566 39.2689 68.899C38.488 69.1624 38.0395 69.3927 36.9932 69.3913C36.9194 67.7404 36.6986 65.2167 36.7646 63.643C37.2792 63.6771 38.038 63.2754 38.4513 63.3857Z" fill="#DCD9D8"></path> <path fill-rule="evenodd" clip-rule="evenodd" d="M36.1742 37.2457C35.465 37.7086 34.8611 38.2866 34.18 38.7809C32.6696 38.8556 31.8454 38.6763 30.7358 37.8091C30.7541 37.7394 30.8655 37.7705 30.8697 37.685C32.4865 38.4055 34.5416 37.3916 36.1742 37.2457" fill="#F0D6B7"></path> <path fill-rule="evenodd" clip-rule="evenodd" d="M27.6873 48.2661C28.1315 46.3412 29.872 45.3443 31.4525 44.2843C33.0839 46.3548 34.076 49.0174 35.1686 51.5868C32.5872 50.8087 29.9496 49.5461 27.6873 48.2661Z" fill="#81B0C4"></path> <path fill-rule="evenodd" clip-rule="evenodd" d="M36.7633 63.644C36.6973 65.2177 36.9181 67.7414 36.992 69.3923C38.0382 69.3937 38.4868 69.1634 39.2676 68.9C39.3558 66.9575 38.6526 65.1604 38.45 63.3867C38.0367 63.2764 37.2779 63.6781 36.7633 63.644V63.644ZM20.4722 54.6941C21.1621 61.0364 22.1614 66.3679 23.9941 71.9842C28.0617 73.2192 32.9654 73.3268 36.5607 72.2124C35.9006 69.0425 36.189 65.1834 35.8032 61.8008C35.5124 59.2583 35.6606 56.7001 35.262 54.1062C30.9054 53.1998 24.7476 53.8943 20.4722 54.6941V54.6941ZM36.2921 54.146C36.2553 56.8699 36.414 59.5568 36.622 62.284C37.6679 62.127 38.3777 62.0222 39.3495 61.8092C39.0339 59.1836 39.0728 56.2291 38.43 53.9066C37.6871 53.9137 37.0329 53.8979 36.2921 54.146V54.146ZM41.598 53.7069C41.1016 53.5931 40.5237 53.7025 40.0494 53.7117C40.2723 55.9321 40.8132 58.3823 41.0036 60.713C41.7498 60.7363 42.1485 60.3843 42.7623 60.2659C42.7952 58.22 42.5836 55.4014 41.598 53.7069V53.7069ZM49.6321 61.0473C51.1875 60.6696 52.1657 58.7645 51.7305 56.808C51.4386 55.4931 50.9186 53.0171 50.3621 52.176C49.9509 51.5538 48.836 50.7392 47.9457 51.3093C46.4975 52.2367 43.9463 52.5058 42.8902 53.6284C43.4197 55.3915 43.5841 57.8133 43.8026 60.0474C45.6118 60.1602 47.8378 59.5495 49.3425 60.1975C48.2921 60.5378 46.929 60.5405 46.0215 61.0364C46.7632 61.3946 48.4998 61.3223 49.6321 61.0473V61.0473ZM35.1672 51.5878C34.0747 49.0184 33.0825 46.3558 31.4511 44.2853C29.8706 45.3453 28.1301 46.3422 27.6859 48.2671C29.9482 49.5471 32.5858 50.8097 35.1672 51.5878ZM37.8604 43.6312C37.757 46.2009 37.4638 49.5716 36.7789 51.5855C38.4126 49.5052 39.7302 47.0828 41.1073 44.7243C40.5204 43.7821 39.2933 42.9606 37.8604 43.6312V43.6312ZM34.8074 42.5464C34.1885 42.4797 33.6632 43.2579 32.8584 42.9214C32.674 43.1252 32.5063 43.3461 32.3184 43.5451C34.0959 45.6872 34.9036 48.7264 36.2765 51.2438C37.0132 48.8256 36.9283 46.1763 37.0906 43.537C36.0784 43.6013 35.5169 42.6217 34.8074 42.5464ZM32.8443 39.9554C32.7783 40.6891 32.9489 40.929 33.0965 41.77C35.5082 42.524 35.0871 38.46 32.8443 39.9554ZM30.17 39.0774C29.1308 38.5096 27.5697 37.8913 26.2275 37.6352C24.5638 37.3169 24.7196 39.9046 24.7903 41.4484C24.8457 42.6707 25.4813 43.9632 25.7574 44.7752C25.887 45.1543 25.9162 45.5566 26.2403 45.6319C26.8133 45.7654 28.7032 45.0097 29.2417 44.716C30.3807 44.095 31.2643 43.1088 32.2317 42.4466C32.2443 42.1244 32.2565 41.8026 32.2694 41.4804C31.6878 41.1905 31.0157 40.9849 30.1619 40.9476C30.7411 40.6562 31.5931 40.6604 32.1208 40.3137C32.1259 40.1846 32.1313 40.0558 32.1358 39.9279C31.1723 39.8538 30.805 39.4247 30.17 39.0774V39.0774ZM20.2444 37.2745C19.3819 38.1501 22.6633 39.3437 23.7081 39.4079C23.7023 38.8539 24.0239 38.3315 23.9591 37.934C22.7182 37.7162 21.0874 37.8599 20.2444 37.2745V37.2745ZM30.8687 37.6857C30.8645 37.7712 30.753 37.7401 30.7348 37.8097C31.8444 38.677 32.6686 38.8563 34.179 38.7816C34.86 38.2873 35.464 37.7093 36.1731 37.2464C34.5406 37.3922 32.4854 38.4062 30.8687 37.6857V37.6857ZM40.6205 40.6427C40.5739 39.67 40.3184 37.6696 39.7171 37.3193C38.4551 36.5827 36.2117 38.8067 35.2614 39.1459C35.3648 39.4435 35.5354 39.6793 35.5485 40.0597C36.1107 39.9213 36.795 40.0161 37.2821 40.2555C36.7188 40.3185 36.0942 40.3143 35.7216 40.5827C35.585 40.9775 35.755 41.5154 35.6642 42.0634C37.0012 42.4406 38.5283 42.6414 40.2186 42.691C40.5473 42.2637 40.6593 41.4496 40.6205 40.6427V40.6427ZM18.7924 38.1214C18.5216 37.9284 16.6894 35.5445 16.4384 35.6434C13.1232 36.9509 10.0233 39.2116 7.25314 41.3498C9.89428 47.0171 10.9604 53.9604 11.1488 60.6525C14.1744 62.0676 16.8318 64.1076 20.9374 64.3206C20.4623 60.9592 20.0286 57.9603 19.759 54.7956C18.7274 54.3608 17.2474 54.8153 16.282 54.6608C16.2738 53.4974 17.7564 54.1513 17.8799 53.369C17.9729 52.7773 17.0642 52.7324 17.3601 51.8006C18.1148 52.075 18.5111 52.6809 19.316 52.9085C20.0514 51.2995 19.3057 48.4527 19.4117 47.1079C19.4318 46.8554 19.5378 45.709 20.1033 45.9102C20.6039 46.0882 20.0747 48.959 20.1296 50.2317C20.1796 51.4043 19.988 52.539 20.4629 53.2751C24.4301 52.7351 28.4616 52.3861 32.7541 52.2683C31.8097 51.8631 30.6879 51.4796 29.4579 50.7863C28.7911 50.4105 26.6893 49.6283 26.4969 48.995C26.1899 47.9859 27.3024 47.4483 27.4927 46.5832C25.4901 47.6753 25.0994 45.5363 24.6257 44.0209C24.1964 42.6483 23.9521 41.623 23.8468 40.8313C22.1217 40.0089 20.2773 39.176 18.7924 38.1214V38.1214ZM38.8684 35.9318C41.6306 34.5924 42.1285 40.9377 41.0457 42.9818C41.2131 43.5914 41.7887 43.8248 42.0236 44.3729C40.4821 47.1342 38.7701 49.7117 37.1973 52.4405C38.3672 51.7122 40.0383 52.3102 41.4151 51.765C41.9184 51.566 42.2827 50.414 42.6637 49.4923C43.7117 46.9567 44.812 43.76 45.3016 41.3402C45.4121 40.7889 45.7134 39.5875 45.6458 39.0968C45.5254 38.2182 44.3333 37.5668 43.727 37.0235C42.6099 36.02 41.9064 35.1369 40.7412 34.1985C40.2688 34.896 39.2548 35.3646 38.8684 35.9318V35.9318ZM12.4753 11.4363C11.1591 12.8845 11.4346 15.598 11.5939 17.5285C13.973 16.0319 17.1307 17.6469 17.1009 20.1924C18.2368 20.1622 17.5252 18.7738 17.3198 17.8794C16.6483 14.9579 18.451 11.7839 17.4015 9.11223C15.3639 9.26674 13.6899 10.099 12.4753 11.4363V11.4363ZM21.8929 3.0311C18.9132 3.87563 15.0945 6.04074 13.87 8.71746C14.8181 8.5797 15.4763 8.10155 16.4116 8.04238C16.7651 8.01937 17.2282 8.19061 17.6344 8.0896C18.444 7.88878 19.1272 6.07361 19.738 5.39822C20.3333 4.73868 21.0489 4.45688 21.5386 3.85561C21.8532 3.70379 22.3184 3.71425 22.3363 3.24178C22.1999 3.09595 22.0563 2.98478 21.8929 3.0311V3.0311ZM37.4038 3.82542C34.311 2.08048 29.0762 0.767968 25.7864 2.40801C23.1318 3.73158 19.5436 5.9215 18.3202 8.69654C19.463 11.3745 17.9817 13.8283 17.8871 16.5471C17.8369 17.9938 18.5683 19.2567 18.6243 20.8316C18.2333 21.4768 17.0385 21.5563 16.2114 21.5121C15.933 20.1189 15.4456 18.553 14.0109 18.3958C11.9809 18.1737 10.4966 19.8538 10.4044 21.6095C10.2953 23.6742 11.9902 27.0962 14.3927 26.8587C15.3207 26.7669 15.5487 25.8366 16.5599 25.8462C17.1079 26.9397 15.7145 27.283 15.5711 28.0651C15.5338 28.2671 15.6867 29.0566 15.7756 29.4269C16.212 31.2298 17.1847 33.5632 18.1422 34.9358C19.3574 36.6768 21.7449 36.9392 24.3134 37.1098C24.7722 36.1216 26.4621 36.2029 27.5633 36.4614C26.2436 35.9387 25.0167 34.6716 23.9999 33.55C22.832 32.2632 21.6489 30.8829 21.5892 29.201C23.7963 32.2629 25.6197 34.937 29.633 36.2838C32.6698 37.3023 36.2165 35.817 38.5498 34.1785C39.5181 33.4974 40.096 32.4168 40.7843 31.4277C43.3594 27.7235 44.561 22.4364 44.2968 17.3119C44.1881 15.1985 44.1928 13.0922 43.4837 11.6703C42.7426 10.1836 40.2359 8.85344 38.7686 10.1982C38.4966 8.75243 39.9887 7.85829 41.7414 8.37858C40.4917 6.76573 39.1801 4.82773 37.4038 3.82542V3.82542ZM43.1657 51.5108C45.5825 50.3094 50.098 48.277 51.6131 51.5152C52.1722 52.7089 52.8282 54.7266 53.1178 55.9588C53.5269 57.6971 52.6743 61.3508 50.8875 61.9341C49.3093 62.4492 47.4679 62.4178 45.5669 62.036C45.3431 61.8498 45.0939 61.5253 44.9196 61.187C43.5623 61.1343 42.2913 61.2598 41.2191 61.8178C41.3207 62.8216 40.6417 62.9827 40.0052 63.1894C39.5333 65.0605 40.9492 67.5039 40.6103 69.2099C40.3686 70.4254 38.8732 70.6133 37.774 70.8407C37.7382 71.5162 37.8221 72.08 37.8971 72.6514C37.6458 73.5775 36.5186 74.1046 35.4505 74.2338C31.9364 74.6563 26.6008 74.8461 23.2207 73.6307C22.2775 71.3171 21.5345 68.5032 20.7489 65.8614C17.4523 66.2135 14.7861 64.439 12.2725 63.2764C11.4023 62.873 10.1984 62.6507 9.87327 61.958C9.55808 61.2873 9.68706 60.002 9.60885 58.7878C9.40982 55.6868 9.2394 52.6956 8.42048 49.5204C8.05278 48.0956 7.41189 46.8383 6.96479 45.4654C6.55155 44.193 5.82955 42.6205 5.64125 41.3516C5.36204 39.471 7.13289 39.3664 8.26523 38.5515C10.0157 37.2912 11.3897 36.5943 13.2854 35.4569C13.8469 35.1201 15.5402 34.2676 15.7328 33.8749C16.1157 33.0964 15.0756 31.9987 14.7975 31.3885C14.3576 30.4235 14.1282 29.6038 14.0652 28.6517C12.4749 28.4004 11.2694 27.454 10.5412 26.3868C9.33664 24.6206 8.50126 21.3531 9.54347 18.8676C9.6252 18.6719 10.0328 18.287 10.0929 17.9863C10.2116 17.3943 9.86974 16.6072 9.84849 15.9775C9.739 12.747 10.3951 9.96363 12.5698 8.98941C13.4527 5.47234 16.6126 4.30297 19.5897 2.55504C20.7026 1.90178 21.9293 1.48429 23.1962 1.0181C27.7411 -0.65452 34.7142 -0.339539 38.4862 2.51321C40.0856 3.72292 42.6422 6.27712 43.5566 8.12635C45.9719 13.0085 45.8003 21.1678 44.111 27.1067C43.8838 27.904 43.5545 29.0761 43.0946 30.0339C42.7739 30.7027 41.7773 32.0409 41.8983 32.6314C42.023 33.2419 44.1707 34.8727 44.6313 35.3168C45.4605 36.1168 47.036 37.1786 47.1636 38.1881C47.3008 39.2624 46.6903 40.7321 46.381 41.7688C45.347 45.2284 44.3381 48.4264 43.1657 51.5108" fill="#231F20"></path> <path fill-rule="evenodd" clip-rule="evenodd" d="M27.0433 27.5618C27.1744 27.3872 27.8952 27.1222 28.9038 27.6078C28.9038 27.6078 27.7084 27.8071 27.8079 29.8001L27.3098 29.7003C27.3098 29.7003 26.795 27.8932 27.0433 27.5618" fill="#F7E4CD"></path> <path fill-rule="evenodd" clip-rule="evenodd" d="M35.7772 44.6911C35.7772 44.9935 35.5319 45.2388 35.2292 45.2388C34.9267 45.2388 34.6814 44.9935 34.6814 44.6911C34.6814 44.3887 34.9267 44.143 35.2292 44.143C35.5319 44.143 35.7772 44.3887 35.7772 44.6911Z" fill="#1D1919"></path> <path fill-rule="evenodd" clip-rule="evenodd" d="M36.3249 47.2308C36.3249 47.5333 36.0795 47.7785 35.7768 47.7785C35.4744 47.7785 35.229 47.5333 35.229 47.2308C35.229 46.9284 35.4744 46.6827 35.7768 46.6827C36.0795 46.6827 36.3249 46.9284 36.3249 47.2308Z" fill="#1D1919"></path> <path d="M99.7912 24.0265C99.1713 24.1038 98.6443 24.1811 98.2103 24.2585C97.7764 24.3358 97.2881 24.4441 96.7457 24.5833C96.1102 24.7534 95.6995 25.055 95.5135 25.488C95.343 25.921 95.2578 26.4159 95.2578 26.9727V45.114C95.2578 46.7843 94.9168 48.3154 94.2348 49.7073C93.5684 51.0992 92.6462 52.2668 91.4682 53.2102C90.2748 54.1382 88.9419 54.8341 87.4695 55.2981C85.9971 55.7776 84.4239 56.0173 82.75 56.0173C79.8517 56.0173 77.5113 55.3213 75.729 53.9294C73.9621 52.5375 73.0786 50.6275 73.0786 48.1994C73.0786 46.7611 73.4816 45.5702 74.2875 44.6268C75.109 43.6834 76.2327 43.2117 77.6586 43.2117C79.007 43.2117 80.0764 43.6061 80.8669 44.3948C81.6728 45.1836 82.0758 46.1579 82.0758 47.3178C82.0758 48.3076 81.7271 49.2278 81.0296 50.0784C80.3477 50.9136 79.565 51.6869 78.6815 52.3983V52.6999C78.821 53.0092 79.1232 53.2721 79.5882 53.4886C80.0532 53.7052 80.5259 53.8134 81.0064 53.8134C82.8663 53.8134 84.3232 53.1484 85.3771 51.8183C86.4465 50.4883 86.9813 48.4777 86.9813 45.7867V27.2047C86.9813 26.6479 86.896 26.184 86.7255 25.8128C86.555 25.4416 86.1443 25.1168 85.4934 24.8384C85.0284 24.6374 84.4627 24.4673 83.7962 24.3281C83.1452 24.1889 82.6028 24.0884 82.1688 24.0265V22.217H99.7912V24.0265Z" fill="black"></path> <path d="M127.387 49.5913C126.845 50.4728 126.186 51.308 125.411 52.0967C124.652 52.87 123.784 53.535 122.807 54.0918C121.769 54.6795 120.715 55.1203 119.646 55.4141C118.592 55.7234 117.375 55.8781 115.995 55.8781C113.702 55.8781 111.718 55.5533 110.044 54.9037C108.385 54.2542 107.014 53.3804 105.929 52.2823C104.844 51.1842 104.03 49.8929 103.488 48.4082C102.961 46.908 102.697 45.2841 102.697 43.5365C102.697 41.959 102.984 40.4511 103.558 39.0127C104.146 37.559 104.976 36.2676 106.045 35.1386C107.099 34.0405 108.424 33.1512 110.021 32.4708C111.633 31.7903 113.43 31.45 115.414 31.45C117.584 31.45 119.367 31.7129 120.761 32.2388C122.156 32.7646 123.311 33.4915 124.225 34.4194C125.109 35.301 125.752 36.3449 126.155 37.5512C126.558 38.7421 126.76 39.9948 126.76 41.3094V42.8173H111.044C111.044 45.9878 111.656 48.4004 112.88 50.0552C114.105 51.7101 116.05 52.5375 118.716 52.5375C120.172 52.5375 121.482 52.1431 122.645 51.3544C123.807 50.5501 124.799 49.5371 125.62 48.3154L127.387 49.5913ZM118.506 40.7758C118.506 39.8479 118.46 38.8968 118.367 37.9224C118.274 36.9481 118.111 36.1516 117.879 35.533C117.615 34.8061 117.251 34.257 116.786 33.8859C116.336 33.5147 115.763 33.3291 115.066 33.3291C113.872 33.3291 112.919 33.9323 112.206 35.1386C111.493 36.3449 111.106 38.2549 111.044 40.8686L118.506 40.7758Z" fill="black"></path> <path d="M160.331 55.1357H146.335V53.4422C146.629 53.4113 146.986 53.3726 147.404 53.3262C147.823 53.2798 148.141 53.2025 148.358 53.0943C148.683 52.9241 148.915 52.6767 149.055 52.3519C149.194 52.0271 149.264 51.5477 149.264 50.9136V40.0567C149.264 38.4792 148.97 37.2961 148.381 36.5073C147.807 35.7031 146.955 35.301 145.823 35.301C145.203 35.301 144.622 35.3938 144.08 35.5794C143.553 35.7649 143.034 36.0356 142.522 36.3913C142.073 36.7006 141.708 37.0177 141.429 37.3425C141.166 37.6672 140.941 37.9533 140.755 38.2008V50.6584C140.755 51.1997 140.833 51.6559 140.988 52.0271C141.143 52.3828 141.398 52.6535 141.755 52.8391C142.003 52.9783 142.313 53.102 142.685 53.2102C143.057 53.3185 143.421 53.3958 143.778 53.4422V55.1357H129.642V53.4422C130.03 53.4113 130.417 53.3726 130.805 53.3262C131.208 53.2644 131.549 53.187 131.828 53.0943C132.324 52.9241 132.665 52.6612 132.851 52.3055C133.037 51.9498 133.13 51.4858 133.13 50.9136V37.412C133.13 36.9326 133.006 36.4609 132.758 35.9969C132.51 35.533 132.184 35.1541 131.781 34.8602C131.502 34.6746 131.146 34.52 130.712 34.3962C130.293 34.2725 129.828 34.1875 129.317 34.1411V32.4476L140.406 31.8444L140.755 32.1924V35.5562H140.848C141.282 35.1695 141.809 34.7056 142.429 34.1643C143.049 33.623 143.623 33.1822 144.15 32.8419C144.723 32.4708 145.475 32.1537 146.405 31.8908C147.335 31.6279 148.327 31.4964 149.38 31.4964C151.907 31.4964 153.798 32.2156 155.053 33.6539C156.324 35.0767 156.959 36.9713 156.959 39.3375V50.7048C156.959 51.277 157.045 51.7333 157.215 52.0735C157.386 52.4138 157.703 52.6844 158.168 52.8855C158.416 52.9937 158.719 53.102 159.075 53.2102C159.447 53.3185 159.866 53.3958 160.331 53.4422V55.1357Z" fill="black"></path> <path d="M192.344 55.1357H181.394C180.045 52.7695 178.813 50.7667 177.697 49.1273C176.581 47.4725 175.527 45.9414 174.535 44.534L173.141 45.7171V50.7744C173.141 51.3312 173.218 51.7874 173.373 52.1431C173.543 52.4988 173.861 52.7617 174.326 52.9319C174.605 53.0556 174.931 53.1638 175.303 53.2566C175.675 53.3494 176.047 53.4113 176.419 53.4422V55.1357H162.028V53.4422C162.415 53.4113 162.803 53.3726 163.19 53.3262C163.578 53.2644 163.919 53.187 164.213 53.0943C164.709 52.9241 165.042 52.6612 165.213 52.3055C165.399 51.9498 165.492 51.4858 165.492 50.9136V25.0472C165.492 24.5369 165.375 24.011 165.143 23.4697C164.926 22.913 164.601 22.4954 164.167 22.217C163.872 22.0314 163.43 21.8768 162.841 21.753C162.252 21.6293 161.718 21.552 161.237 21.5211V19.8276L172.792 19.2244L173.141 19.5956V43.5365C174.287 42.5157 175.574 41.3326 177 39.9871C178.441 38.6416 179.596 37.528 180.464 36.6465C180.975 36.1207 181.254 35.7263 181.301 35.4634C181.363 35.185 181.394 35.0149 181.394 34.953C181.394 34.6746 181.146 34.4426 180.65 34.257C180.169 34.0715 179.441 33.9091 178.464 33.7699V32.1228H190.275V33.7235C188.725 34.1565 187.539 34.5664 186.718 34.953C185.912 35.3242 185.028 35.8268 184.067 36.4609C183.432 36.8785 182.812 37.3193 182.207 37.7832C181.618 38.2317 180.937 38.7962 180.162 39.4767C181.68 41.6728 183.083 43.7066 184.37 45.5779C185.656 47.4493 187.004 49.4289 188.415 51.5168C188.895 52.2436 189.492 52.7308 190.205 52.9783C190.918 53.2257 191.631 53.3804 192.344 53.4422V55.1357Z" fill="black"></path> <path d="M207.293 55.1357H192.6V53.4422C193.003 53.4113 193.398 53.3726 193.785 53.3262C194.173 53.2798 194.506 53.2025 194.785 53.0943C195.281 52.9087 195.63 52.6457 195.831 52.3055C196.033 51.9498 196.133 51.4858 196.133 50.9136V37.412C196.133 36.8707 196.009 36.399 195.761 35.9969C195.513 35.5794 195.203 35.2468 194.831 34.9994C194.552 34.8138 194.126 34.636 193.553 34.4658C192.995 34.2957 192.483 34.1875 192.018 34.1411V32.4476L203.41 31.8444L203.759 32.1924V50.612C203.759 51.1533 203.875 51.6173 204.108 52.0039C204.34 52.3751 204.673 52.6535 205.107 52.8391C205.417 52.9783 205.758 53.102 206.13 53.2102C206.502 53.3185 206.89 53.3958 207.293 53.4422V55.1357ZM203.898 23.4929C203.898 24.6683 203.441 25.6736 202.527 26.5087C201.628 27.3284 200.558 27.7383 199.318 27.7383C198.063 27.7383 196.978 27.3284 196.064 26.5087C195.165 25.6736 194.715 24.6683 194.715 23.4929C194.715 22.3175 195.165 21.3123 196.064 20.4771C196.978 19.642 198.063 19.2244 199.318 19.2244C200.574 19.2244 201.651 19.642 202.55 20.4771C203.449 21.3123 203.898 22.3175 203.898 23.4929Z" fill="black"></path> <path d="M240.12 55.1357H226.124V53.4422C226.418 53.4113 226.775 53.3726 227.193 53.3262C227.612 53.2798 227.93 53.2025 228.147 53.0943C228.472 52.9241 228.705 52.6767 228.844 52.3519C228.984 52.0271 229.053 51.5477 229.053 50.9136V40.0567C229.053 38.4792 228.759 37.2961 228.17 36.5073C227.596 35.7031 226.744 35.301 225.613 35.301C224.993 35.301 224.411 35.3938 223.869 35.5794C223.342 35.7649 222.823 36.0356 222.311 36.3913C221.862 36.7006 221.498 37.0177 221.219 37.3425C220.955 37.6672 220.73 37.9533 220.544 38.2008V50.6584C220.544 51.1997 220.622 51.6559 220.777 52.0271C220.932 52.3828 221.188 52.6535 221.544 52.8391C221.792 52.9783 222.102 53.102 222.474 53.2102C222.846 53.3185 223.21 53.3958 223.567 53.4422V55.1357H209.432V53.4422C209.819 53.4113 210.206 53.3726 210.594 53.3262C210.997 53.2644 211.338 53.187 211.617 53.0943C212.113 52.9241 212.454 52.6612 212.64 52.3055C212.826 51.9498 212.919 51.4858 212.919 50.9136V37.412C212.919 36.9326 212.795 36.4609 212.547 35.9969C212.299 35.533 211.973 35.1541 211.57 34.8602C211.291 34.6746 210.935 34.52 210.501 34.3962C210.082 34.2725 209.618 34.1875 209.106 34.1411V32.4476L220.196 31.8444L220.544 32.1924V35.5562H220.637C221.071 35.1695 221.598 34.7056 222.218 34.1643C222.838 33.623 223.412 33.1822 223.939 32.8419C224.512 32.4708 225.264 32.1537 226.194 31.8908C227.124 31.6279 228.116 31.4964 229.17 31.4964C231.696 31.4964 233.587 32.2156 234.842 33.6539C236.113 35.0767 236.749 36.9713 236.749 39.3375V50.7048C236.749 51.277 236.834 51.7333 237.004 52.0735C237.175 52.4138 237.493 52.6844 237.958 52.8855C238.206 52.9937 238.508 53.102 238.864 53.2102C239.236 53.3185 239.655 53.3958 240.12 53.4422V55.1357Z" fill="black"></path> <path d="M253.069 55.9245C251.566 55.9245 250.093 55.7002 248.652 55.2517C247.226 54.8187 246.118 54.3547 245.327 53.8598L244.63 55.4373H242.817L242.514 46.7843H244.211C244.444 47.4802 244.831 48.269 245.374 49.1505C245.916 50.0166 246.536 50.7976 247.234 51.4936C247.962 52.1895 248.791 52.7772 249.721 53.2566C250.667 53.7361 251.674 53.9758 252.744 53.9758C254.154 53.9758 255.2 53.7052 255.882 53.1639C256.58 52.6071 256.928 51.7565 256.928 50.612C256.928 49.9934 256.773 49.483 256.463 49.0809C256.153 48.6788 255.727 48.3308 255.185 48.037C254.58 47.7277 253.914 47.4647 253.185 47.2482C252.472 47.0317 251.589 46.7688 250.535 46.4595C249.481 46.1502 248.574 45.8408 247.815 45.5315C247.071 45.2068 246.296 44.7041 245.49 44.0236C244.793 43.4205 244.235 42.6936 243.816 41.843C243.398 40.9924 243.188 39.9794 243.188 38.804C243.188 36.6233 244.103 34.8602 245.932 33.5147C247.776 32.1692 250.186 31.4964 253.162 31.4964C254.573 31.4964 255.867 31.6433 257.045 31.9372C258.238 32.2156 259.238 32.5249 260.044 32.8651L260.532 31.4964H262.299L262.671 39.4071H261.02C260.478 37.7987 259.548 36.4145 258.23 35.2546C256.913 34.0792 255.495 33.4915 253.976 33.4915C252.782 33.4915 251.845 33.7389 251.163 34.2338C250.481 34.7287 250.14 35.417 250.14 36.2985C250.14 37.4739 250.636 38.3245 251.628 38.8504C252.635 39.3762 254.038 39.8711 255.836 40.3351C258.61 41.0465 260.64 42.0208 261.927 43.2581C263.213 44.4799 263.856 46.0419 263.856 47.9442C263.856 50.4806 262.857 52.4447 260.857 53.8366C258.874 55.2285 256.277 55.9245 253.069 55.9245Z" fill="black"></path> </svg> 